<svg xmlns="http://www.w3.org/2000/svg" xmlns:xlink="http://www.w3.org/1999/xlink" width="40" height="56" viewBox="0 0 7.408 12.171"><defs><pattern xlink:href="#a" id="c" patternTransform="matrix(.2048 -.13681 .17548 .293 -18.346 63.85)"/><pattern xlink:href="#b" id="a" patternTransform="matrix(.15995 -.10117 .13704 .21666 1.798 -.49)"/><pattern patternUnits="userSpaceOnUse" width="110.836" height="95.002" id="b"><path style="fill:#f9ad31;fill-opacity:1;stroke-width:.325903" d="M0 23.041h29.325v1.047H0zM0 20.947h29.325v1.047H0zM0 18.852h29.325v1.047H0zM0 16.757h29.325v1.047H0zM0 14.663h29.325v1.047H0zM0 12.568h29.325v1.047H0zM0 10.473h29.325v1.047H0zM0 8.379h29.325v1.047H0zM0 6.284h29.325v1.047H0zM0 4.189h29.325v1.047H0zM0 2.095h29.325v1.047H0zM0 0h29.325v1.047H0z" transform="matrix(3.77953 0 0 3.77953 0 0)"/><g style="fill:#ffd100;fill-opacity:1"><path style="fill:#ffd100;fill-opacity:1;stroke-width:.325904" d="M0 24.089h29.325v1.047H0zM0 21.994h29.325v1.047H0zM0 19.899h29.325v1.047H0zM0 17.805h29.325v1.047H0zM0 15.71h29.325v1.047H0zM0 13.615h29.325v1.047H0zM0 11.521h29.325v1.047H0zM0 9.426h29.325v1.047H0zM0 7.331h29.325v1.047H0zM0 5.237h29.325v1.047H0zM0 3.142h29.325v1.047H0zM0 1.047h29.325v1.047H0z" transform="matrix(3.77953 0 0 3.77953 0 0)"/></g></pattern></defs><path d="M109.537 142.081v12.171h-7.408v-12.17z" style="fill:url(#c);fill-opacity:1;fill-rule:evenodd;stroke-width:.660591" transform="translate(-102.13 -142.081)"/></svg>